<svg width="19" height="23" viewBox="0 0 19 23" fill="none" xmlns="http://www.w3.org/2000/svg">
<path d="M15.885 12.4158C15.8741 10.6125 16.714 9.2534 18.4102 8.25128C17.4615 6.92922 16.0263 6.20208 14.1345 6.06194C12.3432 5.92445 10.3834 7.07729 9.66581 7.07729C8.90744 7.07729 7.17325 6.10954 5.80873 6.10954C2.9927 6.15184 0 8.29359 0 12.6511C0 13.9388 0.241917 15.2688 0.725751 16.6385C1.37268 18.4417 3.70486 22.8601 6.13762 22.7887C7.40973 22.7596 8.30944 21.9108 9.96481 21.9108C11.5712 21.9108 12.403 22.7887 13.8219 22.7887C16.2764 22.7543 18.3857 18.7379 19 16.9293C15.7083 15.4195 15.885 12.5083 15.885 12.4158ZM13.0282 4.35119C14.4063 2.75943 14.2813 1.31044 14.2405 0.789551C13.0227 0.858298 11.6147 1.59601 10.8129 2.50295C9.92947 3.47598 9.4103 4.67906 9.52175 6.0355C10.8373 6.13333 12.0388 5.47495 13.0282 4.35119Z" fill="white"/>
</svg>
